<?xml version="1.0" encoding="UTF-8" standalone="no"?>
<svg
   xmlns:dc="http://purl.org/dc/elements/1.1/"
   xmlns:cc="http://creativecommons.org/ns#"
   xmlns:rdf="http://www.w3.org/1999/02/22-rdf-syntax-ns#"
   xmlns:svg="http://www.w3.org/2000/svg"
   xmlns="http://www.w3.org/2000/svg"
   xmlns:sodipodi="http://sodipodi.sourceforge.net/DTD/sodipodi-0.dtd"
   xmlns:inkscape="http://www.inkscape.org/namespaces/inkscape"
   width="100"
   height="83.897003"
   viewBox="0 0 26.458333 22.197748"
   version="1.1"
   id="svg8"
   inkscape:version="1.0.2 (e86c870879, 2021-01-15)"
   sodipodi:docname="logo.svg">
  <defs
     id="defs2" />
  <sodipodi:namedview
     id="base"
     pagecolor="#ffffff"
     bordercolor="#666666"
     borderopacity="1.0"
     inkscape:pageopacity="0.0"
     inkscape:pageshadow="2"
     inkscape:zoom="11.313709"
     inkscape:cx="36.040388"
     inkscape:cy="43.256724"
     inkscape:document-units="mm"
     inkscape:current-layer="layer1"
     inkscape:document-rotation="0"
     showgrid="false"
     units="px"
     inkscape:pagecheckerboard="true"
     showguides="true"
     inkscape:guide-bbox="true"
     inkscape:snap-intersection-paths="false"
     inkscape:snap-bbox="true"
     inkscape:bbox-paths="true"
     inkscape:bbox-nodes="true"
     inkscape:snap-bbox-edge-midpoints="true"
     inkscape:snap-bbox-midpoints="true"
     inkscape:object-nodes="false"
     inkscape:window-width="2560"
     inkscape:window-height="1355"
     inkscape:window-x="1920"
     inkscape:window-y="0"
     inkscape:window-maximized="1">
    <sodipodi:guide
       position="10.476965,3.2490767"
       orientation="0,-1"
       id="guide1032" />
  </sodipodi:namedview>
  <metadata
     id="metadata5">
    <rdf:RDF>
      <cc:Work
         rdf:about="">
        <dc:format>image/svg+xml</dc:format>
        <dc:type
           rdf:resource="http://purl.org/dc/dcmitype/StillImage" />
        <dc:title></dc:title>
      </cc:Work>
    </rdf:RDF>
  </metadata>
  <g
     inkscape:label="Layer 1"
     inkscape:groupmode="layer"
     id="layer1">
    <ellipse
       style="fill:#141414;fill-opacity:1;stroke:#ffffff;stroke-width:0.0382869;stroke-miterlimit:4;stroke-dasharray:none;stroke-opacity:1"
       id="path864"
       cx="8.6139936"
       cy="19.282253"
       rx="13.601211"
       ry="4.7088156"
       transform="matrix(0.9671879,-0.25406212,0.25400644,0.96720253,0,0)" />
    <ellipse
       style="fill:#d0058e;fill-opacity:1;stroke:#000000;stroke-width:0.0382869;stroke-miterlimit:4;stroke-dasharray:none;stroke-opacity:1"
       id="path864-6"
       cx="8.6139936"
       cy="17.88443"
       rx="9.1567478"
       ry="3.1325805"
       transform="matrix(0.9671879,-0.25406212,0.25400644,0.96720253,0,0)" />
    <rect
       style="fill:#d0058e;fill-opacity:1;stroke:none;stroke-width:0.325589;stroke-miterlimit:4;stroke-dasharray:none;stroke-opacity:1"
       id="rect928"
       width="18.352007"
       height="3.5629044"
       x="-0.5620088"
       y="14.321527"
       transform="matrix(0.9671879,-0.25406212,0.25400644,0.96720253,0,0)" />
    <ellipse
       style="fill:#141414;fill-opacity:1;stroke:#000000;stroke-width:0.0382471;stroke-miterlimit:4;stroke-dasharray:none;stroke-opacity:1"
       id="path864-6-7"
       cx="8.6139936"
       cy="14.321527"
       rx="9.1568804"
       ry="3.132714"
       transform="matrix(0.9671879,-0.25406212,0.25400644,0.96720253,0,0)" />
    <g
       style="fill:#141414;fill-opacity:1"
       id="g862"
       transform="matrix(0.79874833,-0.20981619,0.2062344,0.78529678,2.8348714,-1.6224238)">
      <rect
         style="fill:#141414;fill-opacity:1;stroke:none;stroke-width:0.46875;stroke-miterlimit:4;stroke-dasharray:none;stroke-opacity:1"
         id="rect950"
         width="22.222065"
         height="9.9592476"
         x="-4.499639"
         y="8.725316" />
    </g>
    <ellipse
       style="fill:#141414;fill-opacity:1;stroke:#000000;stroke-width:0.0382869;stroke-miterlimit:4;stroke-dasharray:none;stroke-opacity:1"
       id="path864-6-7-5"
       cx="8.6139936"
       cy="6.2353544"
       rx="9.1760025"
       ry="3.132694"
       transform="matrix(0.9671879,-0.25406212,0.25400644,0.96720253,0,0)" />
    <g
       style="fill:#e10098"
       id="g1012"
       transform="matrix(0.21870868,-0.05745068,0.05744395,0.2187343,7.6122228,8.4267327)">
      <path
         d="M 4.08,22.864 2.98,22.228 15.248,0.98 l 1.1,0.636 z"
         id="path983" />
      <path
         d="m 2.727,20.53 h 24.538 v 1.272 H 2.727 Z"
         id="path985" />
      <path
         d="m 15.486,28.332 -12.273,-7.086 0.636,-1.1 12.273,7.086 z M 26.148,9.862 13.874,2.777 14.51,1.677 26.783,8.763 Z"
         id="path987" />
      <path
         d="M 3.852,9.858 3.216,8.758 15.5,1.67 l 0.636,1.1 z"
         id="path989" />
      <path
         d="m 25.922,22.864 -12.27,-21.25 1.1,-0.636 12.27,21.25 z M 3.7,7.914 H 4.972 V 22.086 H 3.7 Z m 21.328,0 H 26.3 v 14.172 h -1.272 z"
         id="path991" />
      <path
         d="M 15.27,27.793 14.715,26.831 25.39,20.668 25.945,21.63 Z"
         id="path993" />
      <path
         d="m 27.985,22.5 a 2.68,2.68 0 0 1 -3.654,0.981 2.68,2.68 0 0 1 -0.981,-3.654 2.68,2.68 0 0 1 3.654,-0.981 c 1.287,0.743 1.724,2.375 0.98,3.654 M 6.642,10.174 A 2.68,2.68 0 0 1 2.988,11.155 2.68,2.68 0 0 1 2.007,7.5 2.68,2.68 0 0 1 5.661,6.519 2.68,2.68 0 0 1 6.642,10.173 M 2.015,22.5 a 2.68,2.68 0 0 1 0.981,-3.654 2.68,2.68 0 0 1 3.654,0.981 2.68,2.68 0 0 1 -0.981,3.654 c -1.287,0.735 -2.92,0.3 -3.654,-0.98 M 23.358,10.175 a 2.68,2.68 0 0 1 0.981,-3.654 2.68,2.68 0 0 1 3.654,0.981 2.68,2.68 0 0 1 -0.981,3.654 2.68,2.68 0 0 1 -3.654,-0.981 M 15,30 A 2.674,2.674 0 1 1 17.674,27.327 2.68,2.68 0 0 1 15,30 M 15,5.348 a 2.67,2.67 0 0 1 -2.674,-2.674 2.6735,2.6735 0 1 1 5.347,0 A 2.67,2.67 0 0 1 15,5.347"
         id="path995" />
    </g>
  </g>
</svg>
